<?xml version="1.0" standalone="no"?>
<!DOCTYPE svg PUBLIC "-//W3C//DTD SVG 20010904//EN"
 "http://www.w3.org/TR/2001/REC-SVG-20010904/DTD/svg10.dtd">
<svg version="1.0" xmlns="http://www.w3.org/2000/svg"
 width="300.000000pt" height="300.000000pt" viewBox="0 0 300.000000 300.000000"
 preserveAspectRatio="xMidYMid meet">
<metadata>
Created by potrace 1.10, written by Peter Selinger 2001-2011
</metadata>
<g transform="translate(0.000000,300.000000) scale(0.100000,-0.100000)"
fill="#c9a646" stroke="none">
<path d="M1345 2238 c-73 -40 -87 -100 -35 -156 17 -18 30 -38 30 -43 0 -5
-12 -23 -27 -38 -41 -43 -77 -90 -85 -110 -3 -10 -11 -53 -17 -97 -6 -43 -14
-94 -17 -111 -5 -29 -3 -34 20 -43 31 -11 31 -10 7 -130 -11 -52 -22 -123 -26
-158 -4 -34 -11 -65 -16 -68 -18 -11 -9 -45 17 -56 29 -13 29 -16 -4 -273 -23
-190 -24 -188 18 -201 29 -10 36 -17 40 -45 l5 -34 85 0 c91 0 86 -4 78 52 -2
12 5 19 20 21 14 2 22 -2 22 -11 0 -30 35 -46 118 -53 71 -6 82 -5 88 10 8 21
-13 46 -37 46 -12 0 -19 7 -19 20 0 11 6 20 14 20 8 0 16 6 19 13 7 19 -10
205 -22 246 -15 48 -16 204 -2 209 14 5 15 49 1 57 -5 3 -10 30 -10 59 0 34
-5 58 -14 65 -8 7 -17 42 -21 82 -8 76 1 99 39 99 14 0 26 12 38 38 13 27 30
43 65 59 51 24 86 55 131 115 15 20 49 65 76 99 34 42 46 66 40 74 -49 66 -91
114 -100 114 -14 1 -26 -27 -18 -40 3 -5 11 -9 18 -9 14 0 43 -47 34 -56 -4
-3 -24 6 -46 20 -22 14 -52 28 -66 32 -14 3 -30 12 -37 20 -6 8 -17 14 -23 14
-12 0 -136 -181 -136 -199 0 -16 -48 -44 -65 -37 -8 3 -15 17 -15 30 0 14 -13
41 -30 59 -33 38 -38 64 -15 73 28 11 42 58 40 135 l-3 74 -48 12 c-63 14 -85
15 -109 1z m58 -262 c24 -19 26 -25 14 -34 -12 -10 -5 -21 38 -66 29 -30 56
-63 60 -75 8 -27 21 -27 35 0 7 12 17 18 27 15 8 -3 24 1 36 9 12 8 28 15 37
15 8 0 21 9 28 20 7 11 19 20 27 20 9 0 18 13 22 30 6 35 45 70 77 70 16 0 21
-6 20 -27 -1 -40 -13 -63 -33 -63 -21 0 -65 -56 -56 -71 4 -5 -1 -21 -10 -35
-12 -19 -21 -23 -38 -18 -12 4 -23 11 -25 15 -5 14 -19 11 -37 -7 -15 -15 -15
-18 1 -35 9 -10 13 -23 9 -29 -25 -40 -187 -62 -234 -33 -20 13 -25 13 -32 2
-13 -21 -12 -23 21 -47 16 -12 44 -22 63 -22 61 0 66 -10 72 -165 3 -77 5
-159 5 -183 1 -36 5 -44 25 -52 22 -9 24 -14 29 -137 3 -70 8 -162 12 -204 l5
-77 -32 -11 c-48 -16 -65 -14 -94 15 -18 18 -31 23 -43 18 -23 -11 -99 -6
-124 7 -19 10 -20 17 -15 98 12 158 16 183 31 200 22 25 21 30 -20 72 -22 22
-36 46 -35 60 3 106 21 312 29 325 6 11 4 26 -6 47 -9 19 -12 35 -6 42 46 63
46 62 34 117 -6 29 -13 74 -15 99 -4 50 5 59 63 59 27 0 29 20 2 27 -22 6 -28
33 -7 33 6 -1 25 -11 40 -24z"/>
<path d="M1312 1462 c-16 -52 -16 -52 14 -52 24 0 25 2 19 33 -12 56 -21 61
-33 19z"/>
<path d="M1440 1374 c0 -14 4 -23 10 -19 6 3 10 15 10 26 0 10 -4 19 -10 19
-5 0 -10 -12 -10 -26z"/>
</g>
</svg>
