<?xml version="1.0" standalone="no"?>
<!DOCTYPE svg PUBLIC "-//W3C//DTD SVG 20010904//EN"
 "http://www.w3.org/TR/2001/REC-SVG-20010904/DTD/svg10.dtd">
<svg version="1.0" xmlns="http://www.w3.org/2000/svg"
 width="100.000000pt" height="100.000000pt" viewBox="0 0 100.000000 100.000000"
 preserveAspectRatio="xMidYMid meet">
<metadata>
Created by potrace 1.10, written by Peter Selinger 2001-2011
</metadata>
<g transform="translate(0.000000,100.000000) scale(0.100000,-0.100000)"
fill="#c9a646" stroke="none">
<path d="M578 784 c-5 -4 -8 -16 -8 -26 0 -10 -7 -18 -15 -18 -22 0 -18 -17 4
-23 17 -4 19 -11 15 -48 -8 -68 -22 -78 -56 -37 -15 18 -28 27 -28 21 0 -19
36 -74 43 -66 12 11 49 -36 44 -55 -3 -9 -2 -84 2 -167 l8 -150 3 185 c1 102
2 213 2 248 0 46 4 65 14 69 8 3 14 10 14 15 0 6 -6 8 -14 5 -11 -4 -16 3 -18
24 -2 17 -6 27 -10 23z"/>
<path d="M449 734 c-10 -13 -10 -20 3 -42 19 -31 28 -35 46 -23 19 11 22 69 4
76 -23 9 -39 6 -53 -11z m36 -14 c3 -5 1 -10 -4 -10 -6 0 -11 5 -11 10 0 6 2
10 4 10 3 0 8 -4 11 -10z"/>
<path d="M436 648 c-18 -30 -28 -88 -17 -102 5 -6 3 -37 -4 -71 -8 -40 -9 -62
-3 -66 7 -5 7 -29 0 -75 -11 -77 -1 -96 54 -110 23 -6 26 -4 21 10 -4 9 -2 16
3 16 6 0 10 -4 10 -10 0 -5 16 -10 36 -10 22 0 33 4 29 11 -4 5 -9 58 -11 117
-2 59 -8 122 -13 140 -8 25 -7 32 5 32 8 0 14 7 14 15 0 8 -4 15 -10 15 -5 0
-10 -5 -10 -11 0 -5 -5 -7 -12 -3 -16 10 -58 12 -58 2 0 -4 12 -11 26 -14 24
-6 26 -10 22 -54 -1 -27 -1 -48 2 -48 20 1 21 -4 4 -17 -17 -13 -17 -14 -1
-15 12 0 17 -8 17 -32 0 -18 3 -49 6 -69 5 -31 3 -37 -14 -41 -13 -4 -23 0
-26 9 -4 10 -11 11 -23 5 -32 -17 -43 -3 -43 54 0 44 3 54 18 55 13 0 14 2 2
6 -8 3 -18 10 -21 16 -7 9 -1 108 6 116 3 2 0 12 -5 22 -7 12 -6 19 2 21 8 3
11 20 9 46 -2 37 0 41 16 35 16 -6 16 -5 4 10 -17 22 -18 21 -35 -5z"/>
<path d="M490 585 c-11 -13 -10 -14 4 -9 9 3 16 10 16 15 0 13 -6 11 -20 -6z"/>
<path d="M451 484 c0 -11 3 -14 6 -6 3 7 2 16 -1 19 -3 4 -6 -2 -5 -13z"/>
<path d="M460 435 c-7 -9 -8 -15 -2 -15 5 0 12 7 16 15 3 8 4 15 2 15 -2 0 -9
-7 -16 -15z"/>
<path d="M491 414 c0 -11 3 -14 6 -6 3 7 2 16 -1 19 -3 4 -6 -2 -5 -13z"/>
</g>
</svg>
