<?xml version="1.0" standalone="no"?>
<!DOCTYPE svg PUBLIC "-//W3C//DTD SVG 20010904//EN"
 "http://www.w3.org/TR/2001/REC-SVG-20010904/DTD/svg10.dtd">
<svg version="1.0" xmlns="http://www.w3.org/2000/svg"
 width="100.000000pt" height="100.000000pt" viewBox="0 0 100.000000 100.000000"
 preserveAspectRatio="xMidYMid meet">
<metadata>
Created by potrace 1.10, written by Peter Selinger 2001-2011
</metadata>
<g transform="translate(0.000000,100.000000) scale(0.100000,-0.100000)"
fill="#c9a646" stroke="none">
<path d="M487 830 c-3 -11 -3 -33 -1 -49 l5 -29 -86 5 c-53 3 -85 1 -85 -5 0
-15 22 -20 48 -11 15 6 21 5 17 -1 -3 -5 -8 -94 -10 -197 -2 -104 -6 -197 -7
-208 -2 -12 3 -20 12 -20 11 0 14 9 12 31 -2 22 4 40 23 62 26 31 27 31 50 14
23 -16 24 -22 25 -144 0 -79 4 -128 10 -128 6 0 10 50 10 129 0 108 3 130 16
135 26 10 27 8 20 -34 -5 -32 -3 -40 9 -40 13 0 15 8 10 38 -11 65 -12 66 -40
48 -30 -20 -35 -20 -35 -1 0 9 -10 19 -22 24 -19 7 -22 14 -19 50 1 24 -2 41
-8 41 -6 0 -11 -14 -11 -30 0 -27 -24 -100 -32 -100 -6 0 -2 175 4 186 4 5 2
30 -3 53 -5 24 -8 46 -5 48 9 10 36 -57 36 -90 0 -36 24 -57 43 -38 6 6 2 9
-9 8 -13 -1 -19 5 -19 18 0 14 6 19 18 17 16 -3 16 -1 -2 17 -12 12 -21 28
-21 36 0 8 -4 15 -10 15 -5 0 -10 5 -10 11 0 7 12 10 30 7 19 -3 31 0 35 9 3
9 12 12 25 8 13 -4 31 0 45 9 27 18 55 21 55 6 0 -5 -11 -10 -25 -10 -26 0
-34 -15 -12 -23 9 -4 9 -8 1 -14 -12 -8 -30 -73 -20 -73 3 0 14 20 25 45 23
53 34 58 26 13 -3 -18 -6 -42 -6 -53 0 -11 2 -62 3 -113 3 -75 1 -89 -9 -75
-7 9 -16 38 -19 65 -8 62 -22 62 -20 -1 1 -37 8 -56 29 -81 20 -24 27 -42 25
-64 -2 -22 1 -31 12 -31 9 0 14 8 12 20 -1 11 -4 104 -6 206 -2 103 -7 192
-10 198 -5 8 0 8 16 2 26 -9 48 -4 48 11 0 6 -33 8 -85 5 l-86 -5 5 34 c9 52
-15 91 -27 44z m36 -89 c9 0 17 -5 17 -11 0 -14 -27 -12 -33 3 -4 8 -8 9 -14
1 -15 -20 -41 -23 -45 -6 -5 17 2 18 75 13z m-88 -11 c4 -6 -5 -10 -19 -10
-14 0 -26 5 -26 10 0 6 9 10 19 10 11 0 23 -4 26 -10z"/>
<path d="M499 618 c5 -13 17 -25 27 -27 11 -2 22 -8 26 -15 5 -8 8 -7 8 2 0 8
-9 16 -20 19 -11 3 -17 10 -13 16 3 6 1 7 -5 3 -7 -4 -12 -1 -12 8 0 9 -4 16
-10 16 -6 0 -6 -9 -1 -22z"/>
<path d="M450 596 c0 -2 11 -6 25 -8 13 -3 22 -1 19 3 -5 9 -44 13 -44 5z"/>
<path d="M490 540 c0 -16 4 -30 8 -30 5 0 7 14 4 30 -2 17 -6 30 -8 30 -2 0
-4 -13 -4 -30z"/>
<path d="M440 404 c0 -10 -3 -29 -6 -41 -5 -17 -2 -23 10 -23 14 0 16 6 10 38
-8 42 -14 54 -14 26z"/>
</g>
</svg>
