<?xml version="1.0" standalone="no"?>
<!DOCTYPE svg PUBLIC "-//W3C//DTD SVG 20010904//EN"
 "http://www.w3.org/TR/2001/REC-SVG-20010904/DTD/svg10.dtd">
<svg version="1.0" xmlns="http://www.w3.org/2000/svg"
 width="100.000000pt" height="100.000000pt" viewBox="0 0 100.000000 100.000000"
 preserveAspectRatio="xMidYMid meet">
<metadata>
Created by potrace 1.10, written by Peter Selinger 2001-2011
</metadata>
<g transform="translate(0.000000,100.000000) scale(0.100000,-0.100000)"
fill="#c9a646" stroke="none">
<path d="M493 783 c-3 -10 -20 -30 -37 -45 -26 -22 -29 -30 -20 -45 6 -10 20
-19 32 -21 12 -2 23 -11 26 -20 6 -21 1 -111 -7 -119 -4 -3 -2 -14 3 -24 7
-11 7 -20 0 -24 -15 -9 -93 -10 -108 -1 -13 8 -92 -64 -92 -83 0 -5 -12 -23
-26 -40 l-26 -31 27 -10 c14 -5 33 -10 41 -10 8 0 14 -7 14 -15 0 -8 7 -15 15
-15 8 0 15 5 15 10 0 6 -5 10 -12 10 -6 0 -9 2 -7 5 3 2 24 -2 48 -9 37 -11
41 -14 27 -25 -25 -21 -19 -28 31 -36 26 -4 52 -14 59 -22 6 -9 16 -13 23 -9
12 8 -2 28 -29 39 -11 4 -9 6 5 6 12 1 26 -4 32 -10 12 -12 103 -2 103 12 0 4
-10 17 -22 29 -12 11 -18 23 -15 27 4 3 7 1 7 -7 0 -8 9 -11 29 -7 16 3 33 1
40 -6 10 -9 15 -8 24 4 7 9 29 22 50 28 l39 13 -24 27 c-13 14 -30 39 -36 54
-7 16 -21 31 -32 34 -11 3 -20 11 -20 19 0 17 -19 29 -31 17 -5 -5 -32 -6 -61
-3 l-53 5 1 52 c1 29 -2 51 -6 48 -4 -2 -4 13 0 35 4 22 5 40 1 41 -3 0 10 5
29 12 46 16 50 42 10 65 -17 9 -33 27 -36 40 -7 26 -22 29 -31 5z m31 -56
c-13 -34 -40 -11 -29 24 6 18 9 19 21 7 8 -8 12 -22 8 -31z m-26 -42 c-3 -3
-18 -1 -33 5 -23 9 -25 13 -14 26 11 13 15 13 33 -5 11 -11 17 -23 14 -26z
m72 25 c0 -12 -40 -33 -47 -26 -9 8 28 47 38 40 5 -3 9 -9 9 -14z m-53 -192
c-3 -7 -5 -2 -5 12 0 14 2 19 5 13 2 -7 2 -19 0 -25z m21 -65 c-6 -7 -18 -13
-27 -13 -13 1 -13 3 3 15 18 14 18 15 2 15 -9 0 -14 4 -11 10 4 6 13 5 25 -2
14 -9 16 -16 8 -25z m119 11 c-3 -4 5 -16 19 -26 14 -11 23 -23 20 -25 -3 -3
0 -15 6 -27 7 -11 11 -24 10 -28 -1 -5 6 -8 16 -8 33 -1 -10 -17 -63 -24 -36
-5 -46 -4 -35 3 9 6 10 11 3 11 -13 0 -5 41 11 52 7 5 6 8 -4 8 -11 1 -10 4 4
15 11 8 15 15 9 15 -6 0 -10 8 -8 18 5 23 4 22 12 22 3 0 3 -3 0 -6z m-209
-41 c-5 -21 -15 -44 -20 -51 -6 -7 -8 -16 -4 -20 4 -4 14 2 22 12 8 11 14 15
14 9 0 -7 -4 -15 -10 -18 -5 -3 -10 -20 -10 -38 0 -55 -21 -15 -27 52 -3 34
-10 64 -14 67 -20 12 -7 24 25 24 l34 0 -10 -37z m182 28 c0 -5 -7 -14 -16
-21 -11 -10 -14 -25 -11 -57 3 -24 1 -46 -4 -49 -5 -3 -9 7 -9 21 0 15 -4 34
-9 43 -4 9 -11 29 -15 45 -6 26 -5 27 29 27 19 0 35 -4 35 -9z m-252 -10 c9
-5 12 -24 10 -57 -3 -35 1 -53 12 -62 13 -11 12 -12 -5 -8 -79 19 -108 29 -97
33 6 3 12 13 12 24 0 10 7 19 15 19 8 0 15 5 15 10 0 6 -5 10 -12 10 -9 0 -9
3 0 12 10 10 15 10 23 -2 8 -12 9 -10 4 8 -7 23 1 27 23 13z m122 -10 c0 -5
-7 -11 -15 -15 -9 -3 -15 0 -15 9 0 8 7 15 15 15 8 0 15 -4 15 -9z m54 -58 c0
-26 7 -52 14 -56 25 -17 10 -23 -43 -19 -37 3 -55 1 -55 -7 0 -7 22 -11 58
-11 31 0 64 -5 72 -10 10 -7 -10 -9 -67 -7 -46 2 -86 6 -89 10 -4 4 -2 7 5 7
7 0 10 4 6 9 -3 5 -1 12 4 15 4 3 9 18 9 33 0 15 5 29 11 31 6 2 11 8 11 13 0
6 -4 8 -9 4 -5 -3 -12 -1 -15 4 -7 11 16 21 52 22 20 1 22 3 8 6 -15 4 -16 7
-5 14 21 13 32 -5 33 -58z"/>
<path d="M652 374 c-7 -8 -8 -14 -3 -14 10 0 25 19 20 25 -2 1 -10 -3 -17 -11z"/>
<path d="M345 381 c-3 -5 -2 -12 3 -15 5 -3 9 1 9 9 0 17 -3 19 -12 6z"/>
<path d="M506 344 c-8 -21 -8 -24 3 -24 5 0 11 9 14 20 6 24 -8 27 -17 4z"/>
</g>
</svg>
