<?xml version="1.0" standalone="no"?>
<!DOCTYPE svg PUBLIC "-//W3C//DTD SVG 20010904//EN"
 "http://www.w3.org/TR/2001/REC-SVG-20010904/DTD/svg10.dtd">
<svg version="1.0" xmlns="http://www.w3.org/2000/svg"
 width="100.000000pt" height="100.000000pt" viewBox="0 0 100.000000 100.000000"
 preserveAspectRatio="xMidYMid meet">
<metadata>
Created by potrace 1.10, written by Peter Selinger 2001-2011
</metadata>
<g transform="translate(0.000000,100.000000) scale(0.100000,-0.100000)"
fill="#c9a646" stroke="none">
<path d="M482 658 c-8 -8 -8 -15 -1 -24 11 -14 8 -17 -44 -33 -20 -7 -50 -25
-65 -41 -27 -27 -30 -27 -80 -18 -29 6 -55 8 -59 5 -11 -12 52 -101 96 -134
31 -24 52 -33 75 -31 17 1 62 1 100 0 55 -2 67 -5 63 -16 -3 -8 -1 -17 6 -20
7 -2 2 -5 -11 -5 -13 -1 -21 3 -18 8 6 10 -117 23 -139 15 -22 -9 -18 -21 8
-28 34 -9 170 -7 186 3 12 8 12 12 -2 26 -21 20 -21 26 -3 19 32 -12 126 58
156 117 26 50 25 53 -11 45 -27 -5 -30 -4 -19 9 6 8 20 17 31 20 10 4 19 11
19 16 0 18 -22 9 -62 -25 -37 -32 -105 -66 -93 -46 3 4 2 10 -2 12 -5 2 -19
15 -32 31 -33 37 -7 35 31 -3 17 -17 33 -29 36 -26 10 11 -62 67 -79 63 -10
-3 -19 -1 -21 5 -2 5 -13 10 -25 11 -20 1 -21 3 -8 17 11 13 12 19 3 28 -15
15 -21 15 -36 0z m69 -84 c11 -9 19 -24 19 -33 0 -13 2 -13 9 -3 6 11 10 10
15 -4 3 -9 4 -19 1 -22 -3 -3 -5 -1 -5 4 0 11 -160 12 -177 1 -17 -11 -22 16
-5 32 47 48 107 58 143 25z m-271 -44 c8 -5 11 -10 5 -10 -5 0 -17 5 -25 10
-8 5 -10 10 -5 10 6 0 17 -5 25 -10z m415 0 c-8 -13 11 -13 38 2 20 10 21 10
8 -5 -7 -10 -10 -17 -6 -17 15 0 -82 -84 -112 -97 -18 -7 -63 -13 -101 -13
-58 0 -75 4 -113 28 -53 35 -78 62 -58 63 8 0 -2 6 -21 12 l-35 10 30 7 c17 3
33 2 37 -4 3 -5 74 -10 158 -10 134 -1 152 1 161 17 6 9 12 17 15 17 3 0 2 -4
-1 -10z m-366 -62 c13 -16 37 -36 53 -44 16 -9 28 -18 25 -20 -10 -10 -86 36
-106 65 -38 53 -17 52 28 -1z"/>
<path d="M378 483 c6 -2 18 -2 25 0 6 3 1 5 -13 5 -14 0 -19 -2 -12 -5z"/>
<path d="M453 473 c15 -2 37 -2 50 0 12 2 0 4 -28 4 -27 0 -38 -2 -22 -4z"/>
</g>
</svg>
