<?xml version="1.0" standalone="no"?>
<!DOCTYPE svg PUBLIC "-//W3C//DTD SVG 20010904//EN"
 "http://www.w3.org/TR/2001/REC-SVG-20010904/DTD/svg10.dtd">
<svg version="1.0" xmlns="http://www.w3.org/2000/svg"
 width="100.000000pt" height="100.000000pt" viewBox="0 0 100.000000 100.000000"
 preserveAspectRatio="xMidYMid meet">
<metadata>
Created by potrace 1.10, written by Peter Selinger 2001-2011
</metadata>
<g transform="translate(0.000000,100.000000) scale(0.100000,-0.100000)"
fill="#c9a646" stroke="none">
<path d="M480 700 c-10 -31 -11 -43 -2 -52 9 -9 12 -7 12 9 0 11 6 25 13 31
10 9 13 6 12 -11 -2 -38 -16 -57 -41 -57 -16 0 -25 -7 -29 -22 -8 -32 0 -271
9 -286 4 -7 24 -12 44 -11 20 0 30 3 22 6 -30 12 -37 37 -39 143 -1 83 1 112
12 122 12 11 12 15 -2 26 -14 12 -14 13 2 8 10 -3 25 -6 33 -6 11 0 14 -27 14
-147 0 -101 3 -144 10 -137 7 7 10 64 8 150 -3 136 -4 139 -25 142 -21 3 -34
32 -14 32 18 0 21 33 5 66 -9 19 -20 34 -24 34 -4 0 -13 -18 -20 -40z"/>
<path d="M403 304 c-10 -28 25 -44 95 -44 67 0 102 12 102 35 0 23 -20 28 -40
10 -10 -9 -36 -19 -58 -22 -32 -4 -44 -1 -61 16 -25 25 -30 26 -38 5z"/>
</g>
</svg>
