<?xml version="1.0" standalone="no"?>
<!DOCTYPE svg PUBLIC "-//W3C//DTD SVG 20010904//EN"
 "http://www.w3.org/TR/2001/REC-SVG-20010904/DTD/svg10.dtd">
<svg version="1.0" xmlns="http://www.w3.org/2000/svg"
 width="100.000000pt" height="100.000000pt" viewBox="0 0 100.000000 100.000000"
 preserveAspectRatio="xMidYMid meet">
<metadata>
Created by potrace 1.10, written by Peter Selinger 2001-2011
</metadata>
<g transform="translate(0.000000,100.000000) scale(0.100000,-0.100000)"
fill="#c9a646" stroke="none">
<path d="M446 711 c-38 -49 -45 -64 -36 -78 5 -10 14 -30 20 -45 9 -26 13 -28
70 -28 57 0 61 2 70 28 6 15 15 35 21 46 9 15 3 28 -34 74 -24 31 -49 58 -54
59 -6 2 -32 -23 -57 -56z m74 -6 c12 8 29 -57 23 -89 -5 -23 -10 -26 -43 -26
-34 0 -38 3 -43 30 -8 36 12 98 24 78 6 -9 9 -5 9 13 0 35 14 47 18 15 2 -15
7 -24 12 -21z"/>
<path d="M220 731 c0 -6 5 -13 10 -16 6 -4 8 -15 5 -25 -10 -31 5 -92 21 -86
7 3 18 -2 22 -11 8 -14 12 -14 26 -2 51 42 56 49 54 88 -1 36 -4 40 -35 46
-19 3 -42 3 -53 0 -10 -3 -21 -1 -25 5 -8 13 -25 13 -25 1z m98 -37 c29 -20
28 -47 -4 -64 -30 -17 -57 -4 -62 29 -4 27 18 28 25 1 7 -26 42 -27 40 -1 -1
11 -9 22 -19 24 -10 3 -18 10 -18 16 0 15 12 14 38 -5z"/>
<path d="M756 733 c-4 -5 -24 -9 -44 -10 -21 -1 -44 -3 -53 -3 -24 -2 -24 -75
0 -98 51 -45 53 -46 63 -29 4 9 15 14 22 11 16 -6 31 55 21 86 -3 10 -1 21 5
25 12 7 13 25 2 25 -5 0 -12 -3 -16 -7z m-36 -30 c0 -5 -14 -21 -30 -37 -25
-25 -30 -26 -30 -11 0 22 28 55 47 55 7 0 13 -3 13 -7z m30 -36 c0 -23 -26
-49 -44 -46 -9 2 -16 9 -14 14 1 6 8 9 15 7 7 -2 13 6 13 18 0 11 7 20 15 20
8 0 15 -6 15 -13z"/>
<path d="M344 609 c-3 -6 17 -35 47 -65 l52 -53 -17 -39 c-9 -21 -16 -44 -14
-51 2 -8 -3 -16 -9 -18 -8 -3 -13 4 -13 16 0 11 -12 45 -27 76 -27 54 -28 55
-71 55 -26 0 -41 -4 -37 -10 3 -5 13 -10 22 -10 11 0 14 -6 9 -22 -3 -13 -6
-53 -6 -90 0 -54 -3 -68 -15 -68 -8 0 -15 -4 -15 -10 0 -5 20 -10 45 -10 25 0
45 5 45 10 0 6 -6 10 -14 10 -11 0 -15 17 -18 66 -1 36 -1 68 1 70 3 2 17 -27
33 -65 l29 -69 -31 -31 c-17 -17 -36 -31 -42 -31 -5 0 -8 -8 -6 -17 4 -21 38
-31 38 -11 0 7 34 49 75 92 40 44 71 84 69 88 -3 5 -10 6 -15 2 -5 -3 -6 -10
-3 -16 5 -7 2 -8 -6 -3 -9 5 -11 4 -6 -3 5 -8 2 -10 -8 -6 -13 5 -11 12 10 45
14 22 22 45 19 52 -4 7 0 4 8 -5 8 -10 20 -18 26 -18 7 0 10 -4 7 -9 -4 -5 -1
-22 5 -38 6 -15 13 -23 16 -16 2 7 0 20 -6 30 -9 15 2 29 67 90 61 58 74 75
64 85 -10 10 -21 2 -55 -36 -41 -47 -44 -49 -97 -49 -52 0 -56 2 -95 47 -44
49 -50 52 -61 35z m202 -101 c4 -7 3 -8 -4 -4 -7 4 -12 1 -12 -7 0 -7 -7 -14
-14 -14 -11 0 -13 5 -5 19 11 21 25 23 35 6z m-175 -79 c8 -15 7 -17 -8 -12
-18 7 -33 22 -33 35 0 13 30 -4 41 -23z"/>
<path d="M625 526 c-40 -18 -61 -43 -78 -91 l-13 -40 45 -50 c26 -27 59 -65
74 -83 17 -21 33 -32 42 -28 23 8 18 20 -17 47 l-33 24 45 5 c38 4 46 9 54 32
14 38 3 44 -27 14 -28 -28 -47 -32 -77 -16 -27 14 -42 77 -30 120 12 40 24 50
68 50 26 0 35 -5 42 -25 14 -37 34 -32 26 7 -8 39 -4 36 -51 43 -24 3 -52 0
-70 -9z m-35 -90 c0 -13 -7 -26 -15 -30 -11 -4 -15 1 -15 18 0 12 3 26 7 29
13 14 23 6 23 -17z"/>
<path d="M476 394 c-3 -9 -6 -27 -6 -40 0 -17 -6 -24 -20 -24 -11 0 -20 -4
-20 -10 0 -6 27 -10 60 -10 33 0 60 4 60 10 0 6 -9 10 -20 10 -17 0 -20 7 -20
40 0 41 -21 57 -34 24z"/>
</g>
</svg>
