<?xml version="1.0" standalone="no"?>
<!DOCTYPE svg PUBLIC "-//W3C//DTD SVG 20010904//EN"
 "http://www.w3.org/TR/2001/REC-SVG-20010904/DTD/svg10.dtd">
<svg version="1.0" xmlns="http://www.w3.org/2000/svg"
 width="100.000000pt" height="100.000000pt" viewBox="0 0 100.000000 100.000000"
 preserveAspectRatio="xMidYMid meet">
<metadata>
Created by potrace 1.10, written by Peter Selinger 2001-2011
</metadata>
<g transform="translate(0.000000,100.000000) scale(0.100000,-0.100000)"
fill="#c9a646" stroke="none">
<path d="M464 834 c-13 -19 -14 -28 -6 -36 9 -9 8 -16 -5 -30 -12 -13 -13 -22
-6 -29 12 -12 33 -4 33 11 0 5 -8 7 -17 4 -15 -5 -16 -4 -3 5 8 6 17 11 20 11
3 0 6 -38 6 -85 1 -82 6 -106 21 -92 3 4 6 45 7 92 0 47 3 85 6 85 3 0 12 -5
20 -11 13 -9 12 -10 -2 -5 -10 3 -18 1 -18 -4 0 -15 21 -23 33 -11 8 8 7 15
-5 27 -13 13 -14 21 -5 35 9 14 7 22 -7 38 -26 28 -52 26 -72 -5z m59 -6 c7
-21 -4 -38 -23 -38 -10 0 -20 6 -23 13 -7 20 4 37 23 37 10 0 20 -6 23 -12z"/>
<path d="M432 717 c-7 -8 -9 -17 -5 -21 4 -3 -2 -12 -12 -20 -10 -7 -15 -18
-12 -23 4 -6 0 -16 -9 -23 -8 -7 -13 -19 -10 -26 3 -7 -1 -18 -9 -24 -8 -6
-11 -18 -8 -26 3 -8 0 -14 -6 -14 -6 0 -11 -9 -11 -19 0 -11 -4 -23 -10 -26
-5 -3 -10 -15 -10 -25 0 -10 -7 -23 -16 -28 -17 -9 -16 -47 1 -47 6 0 16 -4
23 -8 16 -10 322 -5 322 6 0 4 9 7 20 7 24 0 28 35 5 44 -8 3 -15 14 -15 25 0
11 -4 23 -10 26 -5 3 -10 15 -10 26 0 10 -5 19 -11 19 -6 0 -9 6 -6 14 3 8 0
20 -8 26 -8 6 -12 17 -9 24 3 7 -2 18 -10 25 -8 7 -12 19 -9 27 3 7 -2 17 -12
20 -9 4 -14 12 -11 20 3 7 -2 18 -9 24 -12 10 -16 9 -21 -5 -5 -11 -1 -21 10
-27 9 -5 14 -13 11 -18 -3 -5 -1 -18 5 -30 5 -11 15 -29 20 -40 6 -11 10 -27
10 -35 0 -8 5 -15 10 -15 6 0 10 -7 10 -15 0 -8 5 -24 10 -35 6 -11 14 -29 20
-40 5 -10 7 -26 4 -35 -6 -13 -27 -15 -155 -13 -158 3 -170 7 -147 51 24 47
28 57 28 72 0 8 5 15 10 15 6 0 10 7 10 15 0 8 4 23 9 33 13 24 25 55 26 68 0
6 7 19 14 28 10 11 11 20 4 27 -7 7 -14 5 -21 -4z m-102 -297 c0 -5 -4 -10
-10 -10 -5 0 -10 5 -10 10 0 6 5 10 10 10 6 0 10 -4 10 -10z m360 0 c0 -5 -4
-10 -10 -10 -5 0 -10 5 -10 10 0 6 5 10 10 10 6 0 10 -4 10 -10z"/>
<path d="M490 565 c-8 -9 -10 -25 -5 -42 4 -16 8 -40 8 -55 1 -16 7 -26 12
-25 6 2 9 19 7 38 -2 19 -3 49 -4 67 -2 37 -2 37 -18 17z"/>
<path d="M434 527 c-3 -10 -1 -29 6 -42 7 -13 9 -28 6 -34 -4 -6 -3 -11 2 -11
18 0 21 27 7 66 -11 32 -15 35 -21 21z"/>
<path d="M537 526 c-3 -7 1 -31 8 -52 10 -29 15 -35 20 -22 4 9 1 26 -5 38 -6
12 -9 28 -6 36 3 8 1 14 -3 14 -5 0 -11 -6 -14 -14z"/>
<path d="M350 350 c0 -28 43 -82 80 -101 86 -46 192 -1 215 91 l6 25 -151 1
c-134 0 -150 -1 -150 -16z m228 -10 c31 0 42 -4 42 -16 0 -8 -5 -12 -11 -9 -6
4 -9 0 -7 -11 2 -12 -2 -18 -10 -16 -8 1 -11 -2 -7 -7 10 -18 -36 -33 -78 -27
-58 10 -104 34 -129 68 l-21 30 89 -5 c49 -4 108 -6 132 -7z"/>
<path d="M492 165 c-1 -25 3 -45 8 -45 6 0 10 11 10 25 0 16 6 25 15 25 8 0
15 5 15 10 0 6 -7 10 -15 10 -8 0 -15 5 -15 10 0 6 -4 10 -8 10 -4 0 -9 -20
-10 -45z"/>
<path d="M460 180 c0 -5 7 -10 15 -10 8 0 15 5 15 10 0 6 -7 10 -15 10 -8 0
-15 -4 -15 -10z"/>
</g>
</svg>
